<svg viewBox="0 0 100 100" xmlns="http://www.w3.org/2000/svg" style="display:none"><defs> <style> .cls-1 { fill: #08b1d8; fill-rule: evenodd; } </style>  <style> .cls-1 { fill: #489e09; fill-rule: evenodd; } </style>  <style> .cls-1 { fill: #d93838; fill-rule: evenodd; } </style>  <style> .cls-1 { fill: #489e09; fill-rule: evenodd; } </style>  <style> .cls-1 { fill: #08b1d8; fill-rule: evenodd; } </style>  <style> .cls-1 { fill: #489e09; fill-rule: evenodd; } </style>  <style> .cls-1 { fill: #d93838; fill-rule: evenodd; } </style>  <style> .cls-1 { fill: #489e09; fill-rule: evenodd; } </style>  <style> .cls-1 { fill: #08b1d8; fill-rule: evenodd; } </style>  <style> .cls-1 { fill: #08b1d8; fill-rule: evenodd; } </style>  <style> .cls-1 { fill: #d93838; fill-rule: evenodd; } </style>  <style> .cls-1 { fill: #d93838; fill-rule: evenodd; } </style> </defs><symbol viewBox="0 0 32 25" id="icon-adaptive"><title>adaptive</title>  <path d="M30.429,20.842 L13.086,20.842 C13.086,20.842 12.441,20.842 12.441,20.018 C12.441,19.529 12.441,18.551 12.441,18.062 C12.441,17.238 13.066,17.239 13.066,17.239 L30.811,17.239 L30.811,1.602 C30.811,1.391 30.636,1.212 30.429,1.212 L5.539,1.212 C5.332,1.212 5.157,1.391 5.157,1.602 C5.157,1.602 5.157,4.648 5.157,5.769 C5.157,6.332 5.220,6.410 4.915,6.410 C4.698,6.410 4.485,6.410 4.292,6.410 C3.928,6.410 3.968,6.332 3.968,5.779 C3.968,4.656 3.968,1.602 3.968,1.602 C3.968,0.718 4.673,-0.000 5.539,-0.000 L30.429,-0.000 C31.295,-0.000 32.000,0.719 32.000,1.602 L32.000,19.240 C32.000,20.123 31.295,20.842 30.429,20.842 ZM17.984,18.016 C17.593,18.016 17.276,18.339 17.276,18.737 C17.276,19.136 17.593,19.459 17.984,19.459 C18.375,19.459 18.692,19.136 18.692,18.737 C18.692,18.339 18.375,18.016 17.984,18.016 ZM11.031,8.874 L11.031,23.966 C11.031,24.536 10.576,25.000 10.018,25.000 L1.013,25.000 C0.454,25.000 -0.000,24.536 -0.000,23.966 L-0.000,8.874 C-0.000,8.304 0.454,7.840 1.013,7.840 L10.018,7.840 C10.576,7.840 11.031,8.304 11.031,8.874 ZM5.502,24.274 C5.792,24.274 6.027,24.034 6.027,23.739 C6.027,23.443 5.792,23.204 5.502,23.204 C5.212,23.204 4.977,23.443 4.977,23.739 C4.977,24.034 5.212,24.274 5.502,24.274 ZM6.626,8.895 L4.405,8.895 C4.299,8.895 4.213,8.982 4.213,9.091 C4.213,9.199 4.299,9.286 4.405,9.286 L6.626,9.286 C6.732,9.286 6.818,9.199 6.818,9.091 C6.818,8.982 6.732,8.895 6.626,8.895 ZM1.111,9.910 C0.979,9.910 0.871,10.023 0.871,10.161 L0.871,22.701 C0.871,22.839 0.979,22.952 1.111,22.952 L9.920,22.952 C10.052,22.952 10.160,22.839 10.160,22.701 L10.160,10.161 C10.160,10.023 10.052,9.910 9.920,9.910 L1.111,9.910 ZM12.663,23.418 L15.285,23.418 C15.411,23.418 15.514,23.313 15.514,23.184 L15.514,22.319 C15.514,22.190 15.617,22.085 15.743,22.085 L20.623,22.085 C20.749,22.085 20.852,22.190 20.852,22.319 L20.852,23.184 C20.852,23.313 20.955,23.418 21.081,23.418 L24.569,23.418 C24.695,23.418 24.798,23.523 24.798,23.651 L24.798,24.652 C24.798,24.781 24.695,24.886 24.569,24.886 L12.663,24.886 C12.537,24.886 12.434,24.781 12.434,24.652 L12.434,23.651 C12.434,23.523 12.537,23.418 12.663,23.418 Z"/> </symbol><symbol viewBox="0 0 21 25" id="icon-android"><title>android</title>  <path d="M19.426,18.736 C18.585,18.736 17.852,18.007 17.852,17.171 L17.852,9.862 C17.852,9.030 18.585,8.297 19.426,8.297 C20.267,8.297 21.000,9.030 21.000,9.862 L21.000,17.171 C21.000,18.007 20.267,18.736 19.426,18.736 ZM15.750,19.780 L14.699,19.780 L14.699,23.435 C14.699,24.271 13.966,25.000 13.125,25.000 C12.284,25.000 11.551,24.271 11.551,23.435 L11.551,19.780 L9.449,19.780 L9.449,23.435 C9.449,24.271 8.716,25.000 7.875,25.000 C7.034,25.000 6.301,24.271 6.301,23.435 L6.301,19.780 L5.250,19.780 C4.619,19.780 4.199,19.363 4.199,18.736 L4.199,8.297 L16.801,8.297 L16.801,18.735 C16.801,19.362 16.381,19.780 15.750,19.780 ZM4.205,6.969 C4.206,6.955 4.207,6.940 4.208,6.926 C4.281,5.548 4.810,4.276 5.639,3.298 C5.986,2.890 6.384,2.533 6.824,2.241 L5.460,0.886 C5.250,0.677 5.250,0.367 5.460,0.157 C5.670,-0.053 5.983,-0.053 6.193,0.157 L7.603,1.554 L7.668,1.619 C8.504,1.203 9.441,0.995 10.484,0.993 C10.490,0.993 10.495,0.993 10.500,0.993 L10.500,0.993 C10.505,0.993 10.510,0.993 10.515,0.993 C11.559,0.995 12.496,1.203 13.332,1.619 L13.397,1.554 L14.807,0.157 C15.017,-0.053 15.330,-0.053 15.540,0.157 C15.750,0.367 15.750,0.677 15.540,0.886 L14.176,2.242 C14.615,2.533 15.014,2.890 15.360,3.298 C16.190,4.276 16.719,5.548 16.792,6.926 C16.792,6.940 16.794,6.955 16.794,6.969 C16.799,7.063 16.801,7.157 16.801,7.252 L4.199,7.252 C4.199,7.157 4.201,7.063 4.205,6.969 ZM13.127,5.427 C13.562,5.427 13.914,5.077 13.914,4.645 C13.914,4.212 13.562,3.862 13.127,3.862 C12.692,3.862 12.339,4.212 12.339,4.645 C12.339,5.077 12.692,5.427 13.127,5.427 ZM7.873,5.427 C8.308,5.427 8.660,5.077 8.660,4.645 C8.660,4.212 8.308,3.862 7.873,3.862 C7.438,3.862 7.086,4.212 7.086,4.645 C7.086,5.077 7.438,5.427 7.873,5.427 ZM1.574,18.736 C0.733,18.736 -0.000,18.007 -0.000,17.171 L-0.000,9.862 C-0.000,9.030 0.733,8.297 1.574,8.297 C2.415,8.297 3.148,9.030 3.148,9.862 L3.148,17.171 C3.148,18.007 2.415,18.736 1.574,18.736 Z"/> </symbol><symbol viewBox="0 0 18 25" id="icon-colb"><title>colb</title>  <path d="M16.336,10.612 C17.423,12.152 18.003,13.983 18.003,15.906 C18.003,20.918 13.970,24.994 9.006,24.994 C4.040,24.994 -0.003,20.917 -0.003,15.906 C-0.003,12.338 2.094,9.100 5.264,7.628 L5.264,5.882 L4.852,5.882 C3.627,5.882 2.614,4.858 2.614,3.621 L2.614,2.223 C2.614,0.986 3.627,0.004 4.852,0.004 L13.137,0.004 C14.362,0.004 15.344,0.986 15.344,2.223 L15.344,3.621 C15.344,4.858 14.362,5.882 13.137,5.882 L12.694,5.882 L12.694,7.619 C14.149,8.271 15.407,9.296 16.336,10.612 ZM11.494,3.730 L12.909,3.730 C13.103,3.730 13.266,3.586 13.266,3.391 L13.266,2.453 C13.266,2.258 13.103,2.104 12.909,2.104 L5.080,2.104 C4.886,2.104 4.744,2.258 4.744,2.453 L4.744,3.391 C4.744,3.586 4.886,3.730 5.080,3.730 L6.495,3.730 C6.976,3.730 7.342,4.138 7.342,4.623 L7.342,8.338 C7.342,8.783 7.077,9.181 6.662,9.333 C3.924,10.331 2.095,12.974 2.095,15.906 C2.095,19.750 5.197,22.878 9.009,22.878 C12.817,22.878 15.912,19.750 15.912,15.906 C15.912,12.894 14.111,10.315 11.323,9.337 C10.902,9.189 10.616,8.788 10.616,8.338 L10.616,4.623 C10.616,4.139 11.014,3.730 11.494,3.730 ZM11.950,13.462 C11.950,14.132 11.413,14.674 10.750,14.674 C10.087,14.674 9.550,14.132 9.550,13.462 C9.550,12.792 10.087,12.250 10.750,12.250 C11.413,12.250 11.950,12.792 11.950,13.462 ZM8.616,11.464 C8.240,11.464 7.936,11.156 7.936,10.777 C7.936,10.398 8.240,10.090 8.616,10.090 C8.991,10.090 9.296,10.398 9.296,10.777 C9.296,11.156 8.991,11.464 8.616,11.464 ZM8.536,15.628 C8.536,15.816 8.509,16.012 8.460,16.169 L14.882,16.169 C14.770,19.371 12.186,21.904 9.004,21.904 C5.824,21.904 3.239,19.371 3.128,16.169 L4.731,16.169 C4.682,16.012 4.656,15.816 4.656,15.628 C4.656,14.546 5.524,13.668 6.596,13.668 C7.667,13.668 8.536,14.546 8.536,15.628 Z"/> </symbol><symbol viewBox="0 0 21 25" id="icon-conf"><title>conf</title>  <path d="M19.182,12.945 C19.056,13.589 18.801,14.186 18.440,14.710 L19.718,15.961 L18.412,17.236 L17.136,15.985 C16.602,16.339 15.992,16.589 15.336,16.713 L15.336,18.486 L13.489,18.486 L13.489,16.713 C12.832,16.588 12.223,16.339 11.688,15.985 L10.411,17.236 L9.106,15.960 L10.383,14.709 C10.023,14.184 9.768,13.587 9.642,12.944 L7.833,12.944 L7.833,11.136 L9.643,11.136 C9.769,10.492 10.023,9.895 10.383,9.372 L9.107,8.119 L10.412,6.843 L11.686,8.094 C12.222,7.739 12.830,7.491 13.487,7.367 L13.487,5.592 L15.334,5.592 L15.334,7.367 C15.990,7.491 16.603,7.738 17.134,8.094 L18.410,6.843 L19.716,8.118 L18.438,9.371 C18.799,9.894 19.054,10.491 19.180,11.136 L20.992,11.136 L20.992,12.944 L20.992,12.945 L19.182,12.945 ZM14.412,10.067 C13.301,10.067 12.399,10.952 12.399,12.041 C12.399,13.128 13.301,14.008 14.412,14.008 C15.522,14.008 16.421,13.131 16.421,12.041 C16.421,10.951 15.523,10.067 14.412,10.067 ZM6.527,18.036 L2.963,18.036 L2.963,15.908 L6.527,15.908 L6.527,18.036 ZM2.963,4.747 L6.527,4.747 L6.527,6.877 L2.963,6.877 L2.963,4.747 ZM6.527,12.330 L2.963,12.330 L2.963,10.200 L6.527,10.200 L6.527,12.330 ZM13.483,3.071 L1.602,3.071 L1.602,19.770 L13.485,19.770 L13.485,19.741 L15.080,19.741 L15.080,22.269 C15.080,23.769 13.825,24.995 12.297,24.995 L2.790,24.995 C1.259,24.995 0.007,23.769 0.007,22.269 L0.007,2.730 C0.007,1.232 1.259,0.005 2.790,0.005 L12.297,0.005 C13.825,0.005 15.080,1.232 15.080,2.730 L15.080,4.320 L13.483,4.320 L13.483,3.071 ZM7.541,23.631 C8.247,23.631 8.818,23.072 8.818,22.383 C8.818,21.693 8.247,21.133 7.541,21.133 C6.837,21.133 6.268,21.693 6.268,22.383 C6.268,23.072 6.837,23.631 7.541,23.631 Z"/> </symbol><symbol viewBox="0 0 25 25" id="icon-cross"><title>cross</title>  <path d="M12.500,-0.000 C5.625,-0.000 -0.000,5.625 -0.000,12.500 C-0.000,19.375 5.625,25.000 12.500,25.000 C19.375,25.000 25.000,19.375 25.000,12.500 C25.000,5.625 19.375,-0.000 12.500,-0.000 ZM12.500,2.500 C16.250,2.500 19.375,4.500 21.125,7.500 L12.500,7.500 C10.125,7.500 8.000,9.250 7.625,11.500 L4.625,6.375 C6.500,4.000 9.250,2.500 12.500,2.500 ZM16.250,12.500 C16.250,14.625 14.625,16.250 12.500,16.250 C10.375,16.250 8.750,14.625 8.750,12.500 C8.750,10.375 10.375,8.750 12.500,8.750 C14.625,8.750 16.250,10.375 16.250,12.500 ZM2.500,12.500 C2.500,10.625 3.000,9.000 3.875,7.500 L8.250,15.000 L8.250,15.000 C9.125,16.500 10.750,17.500 12.500,17.500 C13.125,17.500 13.625,17.375 14.125,17.250 L11.125,22.375 C6.250,21.750 2.500,17.500 2.500,12.500 ZM12.500,22.500 L16.875,15.000 L16.875,15.000 C17.250,14.250 17.625,13.375 17.625,12.500 C17.625,11.000 17.000,9.625 15.875,8.750 L21.875,8.750 C22.375,9.875 22.625,11.125 22.625,12.500 C22.500,18.000 18.000,22.500 12.500,22.500 Z"/> </symbol><symbol viewBox="0 0 24 25" id="icon-mob"><title>mob</title>  <path d="M22.018,6.836 L17.995,6.836 L17.995,1.387 C17.995,0.625 17.354,-0.000 16.574,-0.000 L1.421,-0.000 C0.640,-0.000 -0.000,0.625 -0.000,1.387 L-0.000,23.613 C-0.000,24.375 0.640,25.000 1.421,25.000 L14.972,25.000 L14.992,25.000 L14.992,25.000 L16.393,25.000 L16.574,25.000 L16.574,25.000 L22.018,25.000 C23.119,25.000 24.000,24.121 24.000,23.066 L24.000,8.809 C24.020,7.715 23.119,6.836 22.018,6.836 ZM17.614,8.008 L19.396,8.008 C19.616,8.008 19.796,8.183 19.796,8.398 C19.796,8.613 19.616,8.789 19.396,8.789 L17.614,8.789 C17.394,8.789 17.214,8.613 17.214,8.398 C17.214,8.183 17.394,8.008 17.614,8.008 ZM7.586,1.562 L10.429,1.562 C10.649,1.562 10.829,1.738 10.829,1.953 C10.829,2.168 10.649,2.344 10.429,2.344 L7.586,2.344 C7.366,2.344 7.186,2.168 7.186,1.953 C7.186,1.738 7.366,1.562 7.586,1.562 ZM6.105,1.679 C6.265,1.523 6.525,1.523 6.665,1.679 C6.745,1.758 6.786,1.855 6.786,1.953 C6.786,2.051 6.745,2.148 6.665,2.226 C6.605,2.305 6.505,2.344 6.385,2.344 C6.285,2.344 6.185,2.305 6.105,2.226 C6.025,2.148 5.985,2.051 5.985,1.953 C5.985,1.855 6.045,1.758 6.105,1.679 ZM8.927,24.238 C8.267,24.238 7.726,23.711 7.726,23.066 C7.726,22.422 8.267,21.894 8.927,21.894 C9.588,21.894 10.128,22.422 10.128,23.066 C10.128,23.711 9.588,24.238 8.927,24.238 ZM13.011,8.789 L13.011,21.094 L1.201,21.094 L1.201,3.711 L16.814,3.711 L16.814,6.836 L14.992,6.836 C13.911,6.836 13.011,7.715 13.011,8.789 ZM16.814,8.418 C16.814,8.516 16.774,8.613 16.694,8.691 C16.614,8.769 16.513,8.809 16.413,8.809 C16.313,8.809 16.213,8.769 16.133,8.691 C16.053,8.613 16.013,8.515 16.013,8.418 C16.013,8.320 16.053,8.223 16.133,8.144 C16.273,7.988 16.554,7.988 16.694,8.144 C16.774,8.223 16.814,8.320 16.814,8.418 ZM18.515,24.433 C17.895,24.433 17.394,23.945 17.394,23.340 C17.394,22.734 17.895,22.246 18.515,22.246 C19.136,22.246 19.636,22.734 19.636,23.340 C19.636,23.945 19.136,24.433 18.515,24.433 ZM23.019,21.680 L14.011,21.680 L14.011,9.961 L23.019,9.961 L23.019,21.680 Z"/> </symbol><symbol viewBox="0 0 30 25" id="icon-pixel"><title>pixel</title>  <path d="M29.237,4.315 L16.714,16.469 C16.619,16.561 16.501,16.627 16.371,16.659 L12.846,17.527 C12.805,17.537 12.765,17.542 12.724,17.545 L12.724,18.825 L10.603,18.825 L10.603,20.884 L8.483,20.884 L8.483,18.825 L10.603,18.825 L10.603,16.767 L11.922,16.767 C11.925,16.728 11.931,16.688 11.941,16.649 L12.836,13.227 C12.869,13.102 12.936,12.986 13.031,12.894 L25.554,0.740 C26.046,0.263 26.700,-0.000 27.396,-0.000 C28.092,-0.000 28.745,0.263 29.237,0.740 C30.253,1.726 30.253,3.329 29.237,4.315 ZM13.691,15.828 L14.736,15.571 L13.956,14.814 L13.691,15.828 ZM25.502,2.834 L14.609,13.405 L16.188,14.937 L27.080,4.366 L25.502,2.834 ZM28.185,1.762 C27.974,1.557 27.694,1.444 27.396,1.444 C27.098,1.444 26.817,1.557 26.606,1.762 L26.554,1.812 L28.132,3.345 L28.185,3.293 C28.620,2.871 28.620,2.184 28.185,1.762 ZM6.362,22.942 L6.362,20.884 L8.483,20.884 L8.483,22.942 L6.362,22.942 ZM4.241,25.000 L4.241,22.942 L6.362,22.942 L6.362,25.000 L4.241,25.000 ZM2.121,20.884 L4.241,20.884 L4.241,22.942 L2.121,22.942 L2.121,20.884 ZM-0.000,18.825 L2.121,18.825 L2.121,20.884 L-0.000,20.884 L-0.000,18.825 Z"/> </symbol><symbol viewBox="0 0 28 25" id="icon-qa"><title>qa</title>  <path d="M0.754,6.504 L5.781,6.504 C6.198,6.504 6.535,6.168 6.535,5.754 L6.535,0.750 C6.535,0.336 6.198,-0.000 5.781,-0.000 L0.754,-0.000 C0.337,-0.000 -0.000,0.336 -0.000,0.750 L-0.000,5.754 C-0.000,6.168 0.337,6.504 0.754,6.504 ZM1.508,1.501 L5.027,1.501 L5.027,5.003 L1.508,5.003 L1.508,1.501 ZM5.781,18.496 L0.754,18.496 C0.337,18.496 -0.000,18.832 -0.000,19.246 L-0.000,24.249 C-0.000,24.664 0.337,25.000 0.754,25.000 L5.781,25.000 C6.198,25.000 6.535,24.664 6.535,24.249 L6.535,19.246 C6.535,18.832 6.198,18.496 5.781,18.496 ZM5.027,23.499 L1.508,23.499 L1.508,19.996 L5.027,19.996 L5.027,23.499 ZM8.320,1.635 C8.320,1.220 8.657,0.884 9.074,0.884 L27.246,0.884 C27.662,0.884 28.000,1.220 28.000,1.635 C28.000,2.049 27.662,2.385 27.246,2.385 L9.074,2.385 C8.657,2.385 8.320,2.049 8.320,1.635 ZM8.320,4.606 C8.320,4.191 8.657,3.855 9.074,3.855 L20.384,3.855 C20.801,3.855 21.138,4.191 21.138,4.606 C21.138,5.020 20.801,5.356 20.384,5.356 L9.074,5.356 C8.657,5.356 8.320,5.020 8.320,4.606 ZM8.320,11.014 C8.320,10.600 8.657,10.264 9.074,10.264 L23.627,10.264 C24.043,10.264 24.381,10.600 24.381,11.014 C24.381,11.429 24.043,11.765 23.627,11.765 L9.074,11.765 C8.657,11.765 8.320,11.429 8.320,11.014 ZM8.320,13.985 C8.320,13.571 8.657,13.235 9.074,13.235 L20.384,13.235 C20.801,13.235 21.138,13.571 21.138,13.985 C21.138,14.400 20.801,14.736 20.384,14.736 L9.074,14.736 C8.657,14.736 8.320,14.400 8.320,13.985 ZM8.320,20.262 C8.320,19.847 8.657,19.511 9.074,19.511 L23.627,19.511 C24.043,19.511 24.381,19.847 24.381,20.262 C24.381,20.676 24.043,21.012 23.627,21.012 L9.074,21.012 C8.657,21.012 8.320,20.677 8.320,20.262 ZM28.000,23.233 C28.000,23.648 27.662,23.984 27.246,23.984 L9.074,23.984 C8.657,23.984 8.320,23.648 8.320,23.233 C8.320,22.819 8.657,22.483 9.074,22.483 L27.246,22.483 C27.662,22.483 28.000,22.819 28.000,23.233 ZM7.856,7.056 C7.505,6.833 7.039,6.936 6.815,7.286 L5.559,9.248 L0.754,9.248 C0.337,9.248 -0.000,9.584 -0.000,9.998 L-0.000,15.001 C-0.000,15.416 0.337,15.752 0.754,15.752 L5.781,15.752 C6.198,15.752 6.535,15.416 6.535,15.001 L6.535,10.516 L8.087,8.092 C8.310,7.743 8.207,7.279 7.856,7.056 ZM4.598,10.749 L3.222,12.898 L1.750,10.794 C1.738,10.777 1.723,10.764 1.711,10.749 L4.598,10.749 ZM1.508,13.075 L2.331,14.251 L1.508,14.251 L1.508,13.075 ZM5.027,14.251 L4.144,14.251 L5.027,12.872 L5.027,14.251 Z"/> </symbol><symbol viewBox="0 0 28 25" id="icon-qual"><title>qual</title>  <path d="M27.662,18.451 L25.635,20.461 C25.641,20.555 25.645,20.649 25.645,20.745 C25.645,23.095 23.723,25.000 21.353,25.000 C18.983,25.000 17.062,23.095 17.062,20.745 C17.062,18.394 18.983,16.489 21.353,16.489 C22.285,16.489 23.147,16.784 23.851,17.284 L25.168,15.978 C25.386,15.762 25.675,15.643 25.983,15.643 C26.291,15.643 26.581,15.762 26.799,15.978 L27.662,16.834 C27.880,17.050 28.000,17.337 28.000,17.642 C28.000,17.948 27.880,18.235 27.662,18.451 ZM26.725,17.247 L26.354,16.878 C26.267,16.792 26.149,16.743 26.026,16.743 C25.903,16.743 25.785,16.792 25.698,16.878 L22.270,20.277 L21.053,19.074 C20.872,18.895 20.579,18.895 20.398,19.075 L20.029,19.440 C19.848,19.619 19.848,19.910 20.029,20.090 L21.942,21.989 C22.029,22.076 22.146,22.124 22.270,22.124 L22.270,22.124 C22.393,22.124 22.511,22.076 22.598,21.990 L26.725,17.897 C26.906,17.717 26.906,17.426 26.725,17.247 ZM8.406,13.660 L8.383,13.660 C8.381,13.660 8.379,13.659 8.377,13.659 C8.375,13.659 8.373,13.660 8.371,13.660 L8.342,13.660 C8.155,13.660 7.988,13.541 7.928,13.364 L7.120,10.974 L6.308,13.365 C6.248,13.541 6.082,13.660 5.894,13.660 L5.871,13.660 C5.869,13.660 5.867,13.659 5.865,13.659 C5.863,13.659 5.861,13.660 5.859,13.660 L5.831,13.660 C5.644,13.660 5.477,13.541 5.417,13.366 L4.179,9.744 C4.134,9.612 4.155,9.466 4.237,9.353 C4.319,9.239 4.452,9.172 4.592,9.172 L4.644,9.172 C4.832,9.172 4.999,9.291 5.058,9.468 L5.864,11.870 L6.667,9.469 C6.726,9.292 6.893,9.172 7.081,9.172 L7.155,9.172 C7.343,9.172 7.510,9.291 7.570,9.468 L8.376,11.870 L9.178,9.469 C9.238,9.292 9.405,9.172 9.593,9.172 L9.644,9.172 C9.785,9.172 9.917,9.239 9.999,9.353 C10.082,9.466 10.103,9.612 10.058,9.744 L8.820,13.366 C8.760,13.541 8.593,13.660 8.406,13.660 ZM14.464,13.660 L14.441,13.660 C14.439,13.660 14.437,13.659 14.435,13.659 C14.433,13.659 14.431,13.660 14.429,13.660 L14.400,13.660 C14.213,13.660 14.046,13.541 13.986,13.364 L13.178,10.974 L12.366,13.365 C12.306,13.541 12.140,13.660 11.952,13.660 L11.929,13.660 C11.927,13.660 11.925,13.659 11.923,13.659 C11.921,13.659 11.919,13.660 11.917,13.660 L11.889,13.660 C11.702,13.660 11.535,13.541 11.475,13.366 L10.237,9.744 C10.192,9.612 10.213,9.466 10.295,9.353 C10.377,9.239 10.509,9.172 10.650,9.172 L10.702,9.172 C10.890,9.172 11.057,9.291 11.116,9.468 L11.922,11.870 L12.725,9.469 C12.784,9.292 12.951,9.172 13.139,9.172 L13.213,9.172 C13.401,9.172 13.568,9.291 13.628,9.468 L14.434,11.870 L15.236,9.469 C15.296,9.292 15.463,9.172 15.651,9.172 L15.702,9.172 C15.843,9.172 15.975,9.239 16.057,9.353 C16.139,9.466 16.161,9.612 16.116,9.744 L14.878,13.366 C14.817,13.541 14.651,13.660 14.464,13.660 ZM16.353,9.353 C16.435,9.239 16.567,9.172 16.708,9.172 L16.760,9.172 C16.948,9.172 17.115,9.291 17.174,9.468 L17.980,11.870 L18.783,9.469 C18.842,9.292 19.009,9.172 19.197,9.172 L19.271,9.172 C19.459,9.172 19.626,9.291 19.686,9.468 L20.492,11.870 L21.294,9.469 C21.354,9.292 21.521,9.172 21.709,9.172 L21.760,9.172 C21.901,9.172 22.033,9.239 22.115,9.353 C22.197,9.466 22.219,9.612 22.174,9.744 L20.935,13.366 C20.875,13.541 20.709,13.660 20.522,13.660 L20.499,13.660 C20.497,13.660 20.495,13.659 20.493,13.659 C20.491,13.659 20.489,13.660 20.487,13.660 L20.458,13.660 C20.271,13.660 20.104,13.541 20.044,13.364 L19.236,10.974 L18.424,13.365 C18.364,13.541 18.198,13.660 18.010,13.660 L17.987,13.660 C17.985,13.660 17.983,13.659 17.981,13.659 C17.979,13.659 17.977,13.660 17.975,13.660 L17.947,13.660 C17.759,13.660 17.593,13.541 17.533,13.366 L16.295,9.744 C16.249,9.612 16.271,9.466 16.353,9.353 ZM24.452,14.907 L24.452,5.615 L1.900,5.615 L1.900,21.854 L15.923,21.854 C16.062,22.535 16.327,23.171 16.692,23.738 L1.584,23.738 C0.710,23.738 -0.000,23.034 -0.000,22.168 L-0.000,1.570 C-0.000,0.704 0.710,-0.000 1.584,-0.000 L24.769,-0.000 C25.642,-0.000 26.353,0.704 26.353,1.570 L26.353,14.326 C26.262,14.316 26.170,14.310 26.077,14.310 C25.474,14.310 24.905,14.521 24.452,14.907 ZM19.029,2.637 C19.029,2.316 18.767,2.057 18.445,2.057 L17.860,2.057 C17.537,2.057 17.275,2.316 17.275,2.637 L17.275,3.294 C17.275,3.614 17.537,3.873 17.860,3.873 L18.445,3.873 C18.767,3.873 19.029,3.614 19.029,3.294 L19.029,2.637 ZM21.748,2.637 C21.748,2.316 21.487,2.057 21.164,2.057 L20.579,2.057 C20.256,2.057 19.994,2.316 19.994,2.637 L19.994,3.294 C19.994,3.614 20.256,3.873 20.579,3.873 L21.164,3.873 C21.487,3.873 21.748,3.614 21.748,3.294 L21.748,2.637 ZM24.467,2.637 C24.467,2.316 24.206,2.057 23.883,2.057 L23.298,2.057 C22.975,2.057 22.713,2.316 22.713,2.637 L22.713,3.294 C22.713,3.614 22.975,3.873 23.298,3.873 L23.883,3.873 C24.206,3.873 24.467,3.614 24.467,3.294 L24.467,2.637 Z"/> </symbol><symbol viewBox="0 0 23.031 12.938" id="icon-tag"><title>tag</title>  <path d="M15.971,11.309 L15.971,8.729 L20.879,6.212 L15.971,3.713 L15.971,1.150 L23.016,5.120 L23.016,7.314 L15.971,11.309 ZM8.241,12.952 L12.912,0.002 L14.389,0.002 L9.706,12.952 L8.241,12.952 ZM-0.008,5.115 L7.038,1.150 L7.038,3.745 L2.128,6.191 L7.038,8.729 L7.038,11.309 L-0.008,7.324 L-0.008,5.115 Z"/> </symbol><symbol viewBox="0 0 25 25" id="icon-target"><title>target</title>  <path d="M16.407,10.206 L18.041,8.573 L19.828,6.787 L21.313,5.303 L22.358,5.492 L25.000,2.851 L22.583,2.416 L22.148,-0.000 L19.510,2.641 L19.700,3.685 L18.215,5.169 C13.831,1.602 7.348,1.858 3.262,5.937 C-1.096,10.293 -1.096,17.377 3.262,21.733 C7.620,26.089 14.707,26.089 19.065,21.733 C22.711,18.088 23.305,12.535 20.847,8.271 L18.993,10.124 C20.514,13.339 19.951,17.305 17.293,19.962 C13.913,23.340 8.418,23.340 5.039,19.962 C1.659,16.584 1.659,11.092 5.039,7.713 C8.142,4.612 13.032,4.361 16.428,6.961 L14.794,8.594 C12.300,6.869 8.859,7.114 6.647,9.326 C4.158,11.813 4.158,15.857 6.647,18.344 C9.135,20.832 13.181,20.832 15.670,18.344 C17.416,16.599 17.933,14.086 17.226,11.880 L15.014,14.091 C14.953,14.997 14.584,15.882 13.893,16.573 C12.382,18.083 9.924,18.083 8.413,16.573 C6.903,15.063 6.903,12.607 8.413,11.097 C9.642,9.868 11.496,9.638 12.961,10.411 L11.204,12.166 C10.759,12.151 10.308,12.315 9.970,12.653 C9.320,13.303 9.320,14.362 9.970,15.017 C10.620,15.673 11.680,15.667 12.336,15.017 C12.674,14.679 12.838,14.229 12.822,13.784 L14.579,12.028 L16.407,10.206 Z"/> </symbol><symbol viewBox="0 0 21 25" id="icon-unik"><title>unik</title>  <path d="M20.998,24.192 C20.999,24.634 20.673,24.993 20.270,24.992 L18.264,24.988 C17.862,24.987 17.533,24.626 17.533,24.185 L17.509,10.684 L17.498,4.396 C17.497,4.316 17.497,4.102 18.790,0.253 C18.842,0.099 18.974,-0.004 19.125,-0.008 C19.273,-0.011 19.410,0.086 19.468,0.238 C20.963,4.100 20.964,4.312 20.965,4.403 L20.976,11.192 L20.976,11.192 L20.998,24.192 ZM19.158,1.486 C18.826,2.487 18.515,3.447 18.349,3.996 L20.091,4.000 C19.898,3.446 19.538,2.485 19.158,1.486 ZM20.264,21.716 L18.259,21.713 L18.263,24.187 L20.269,24.191 L20.264,21.716 ZM13.417,14.224 C12.576,14.981 12.232,15.688 12.227,16.649 C12.222,16.655 12.222,16.655 12.227,16.670 L12.217,17.673 C12.212,18.179 11.807,18.584 11.305,18.584 C11.300,18.584 11.300,18.584 11.295,18.584 C10.794,18.578 10.389,18.159 10.394,17.652 L10.404,16.649 C10.409,15.166 10.981,13.958 12.202,12.858 C12.389,12.684 12.571,12.505 12.738,12.311 C14.809,9.942 14.814,6.365 12.743,3.991 C11.554,2.625 9.847,1.842 8.055,1.842 C6.268,1.842 4.557,2.625 3.367,3.991 C1.291,6.370 1.296,9.952 3.382,12.326 C3.549,12.510 3.727,12.694 3.909,12.858 C5.149,13.979 5.726,15.196 5.721,16.701 L5.721,16.706 L5.711,17.663 C5.706,18.169 5.301,18.573 4.800,18.573 C4.795,18.573 4.795,18.573 4.790,18.573 C4.288,18.568 3.883,18.149 3.888,17.642 L3.899,16.685 C3.899,15.723 3.539,14.992 2.694,14.229 C2.456,14.014 2.228,13.784 2.015,13.544 C0.719,12.070 0.005,10.156 0.000,8.161 C-0.005,6.165 0.704,4.247 1.995,2.773 C3.529,1.008 5.736,-0.000 8.050,-0.000 C10.364,-0.000 12.571,1.008 14.105,2.768 C15.391,4.242 16.100,6.155 16.100,8.146 C16.100,10.141 15.391,12.050 14.105,13.523 C13.887,13.769 13.660,14.004 13.417,14.224 ZM7.139,17.652 C7.139,17.652 7.139,13.185 7.139,11.835 L4.886,9.563 C4.531,9.200 4.531,8.616 4.886,8.258 C5.245,7.900 5.822,7.900 6.177,8.258 L8.693,10.801 C8.845,10.955 8.961,11.185 8.961,11.523 L8.961,17.652 C8.961,18.159 8.551,18.573 8.050,18.573 C7.549,18.573 7.139,18.159 7.139,17.652 ZM9.442,8.739 L9.923,8.253 C10.283,7.895 10.860,7.895 11.214,8.253 C11.569,8.616 11.569,9.200 11.214,9.558 L10.733,10.044 C10.551,10.228 10.318,10.315 10.085,10.315 C9.852,10.315 9.620,10.223 9.442,10.044 C9.088,9.681 9.088,9.097 9.442,8.739 ZM4.800,20.113 L11.300,20.113 C11.802,20.113 12.212,20.528 12.212,21.034 C12.212,21.546 11.807,21.955 11.305,21.955 L4.800,21.955 C4.299,21.955 3.888,21.541 3.888,21.034 C3.888,20.528 4.299,20.113 4.800,20.113 ZM6.293,23.158 L9.802,23.158 C10.303,23.158 10.713,23.572 10.713,24.079 C10.713,24.585 10.303,25.000 9.802,25.000 L6.293,25.000 C5.792,25.000 5.382,24.585 5.382,24.079 C5.382,23.572 5.792,23.158 6.293,23.158 Z"/> </symbol></svg>