<svg xmlns="http://www.w3.org/2000/svg" xmlns:xlink="http://www.w3.org/1999/xlink" preserveAspectRatio="xMidYMid" width="32" height="25" viewBox="0 0 32 25">
  <defs>
    <style>
      .cls-1 {
        fill: #08b1d8;
        fill-rule: evenodd;
      }
    </style>
  </defs>
  <path d="M30.429,20.842 L13.086,20.842 C13.086,20.842 12.441,20.842 12.441,20.018 C12.441,19.529 12.441,18.551 12.441,18.062 C12.441,17.238 13.066,17.239 13.066,17.239 L30.811,17.239 L30.811,1.602 C30.811,1.391 30.636,1.212 30.429,1.212 L5.539,1.212 C5.332,1.212 5.157,1.391 5.157,1.602 C5.157,1.602 5.157,4.648 5.157,5.769 C5.157,6.332 5.220,6.410 4.915,6.410 C4.698,6.410 4.485,6.410 4.292,6.410 C3.928,6.410 3.968,6.332 3.968,5.779 C3.968,4.656 3.968,1.602 3.968,1.602 C3.968,0.718 4.673,-0.000 5.539,-0.000 L30.429,-0.000 C31.295,-0.000 32.000,0.719 32.000,1.602 L32.000,19.240 C32.000,20.123 31.295,20.842 30.429,20.842 ZM17.984,18.016 C17.593,18.016 17.276,18.339 17.276,18.737 C17.276,19.136 17.593,19.459 17.984,19.459 C18.375,19.459 18.692,19.136 18.692,18.737 C18.692,18.339 18.375,18.016 17.984,18.016 ZM11.031,8.874 L11.031,23.966 C11.031,24.536 10.576,25.000 10.018,25.000 L1.013,25.000 C0.454,25.000 -0.000,24.536 -0.000,23.966 L-0.000,8.874 C-0.000,8.304 0.454,7.840 1.013,7.840 L10.018,7.840 C10.576,7.840 11.031,8.304 11.031,8.874 ZM5.502,24.274 C5.792,24.274 6.027,24.034 6.027,23.739 C6.027,23.443 5.792,23.204 5.502,23.204 C5.212,23.204 4.977,23.443 4.977,23.739 C4.977,24.034 5.212,24.274 5.502,24.274 ZM6.626,8.895 L4.405,8.895 C4.299,8.895 4.213,8.982 4.213,9.091 C4.213,9.199 4.299,9.286 4.405,9.286 L6.626,9.286 C6.732,9.286 6.818,9.199 6.818,9.091 C6.818,8.982 6.732,8.895 6.626,8.895 ZM1.111,9.910 C0.979,9.910 0.871,10.023 0.871,10.161 L0.871,22.701 C0.871,22.839 0.979,22.952 1.111,22.952 L9.920,22.952 C10.052,22.952 10.160,22.839 10.160,22.701 L10.160,10.161 C10.160,10.023 10.052,9.910 9.920,9.910 L1.111,9.910 ZM12.663,23.418 L15.285,23.418 C15.411,23.418 15.514,23.313 15.514,23.184 L15.514,22.319 C15.514,22.190 15.617,22.085 15.743,22.085 L20.623,22.085 C20.749,22.085 20.852,22.190 20.852,22.319 L20.852,23.184 C20.852,23.313 20.955,23.418 21.081,23.418 L24.569,23.418 C24.695,23.418 24.798,23.523 24.798,23.651 L24.798,24.652 C24.798,24.781 24.695,24.886 24.569,24.886 L12.663,24.886 C12.537,24.886 12.434,24.781 12.434,24.652 L12.434,23.651 C12.434,23.523 12.537,23.418 12.663,23.418 Z" class="cls-1"/>
</svg>
