<svg xmlns="http://www.w3.org/2000/svg" xmlns:xlink="http://www.w3.org/1999/xlink" preserveAspectRatio="xMidYMid" width="21" height="25" viewBox="0 0 21 25">
  <path d="M19.426,18.736 C18.585,18.736 17.852,18.007 17.852,17.171 L17.852,9.862 C17.852,9.030 18.585,8.297 19.426,8.297 C20.267,8.297 21.000,9.030 21.000,9.862 L21.000,17.171 C21.000,18.007 20.267,18.736 19.426,18.736 ZM15.750,19.780 L14.699,19.780 L14.699,23.435 C14.699,24.271 13.966,25.000 13.125,25.000 C12.284,25.000 11.551,24.271 11.551,23.435 L11.551,19.780 L9.449,19.780 L9.449,23.435 C9.449,24.271 8.716,25.000 7.875,25.000 C7.034,25.000 6.301,24.271 6.301,23.435 L6.301,19.780 L5.250,19.780 C4.619,19.780 4.199,19.363 4.199,18.736 L4.199,8.297 L16.801,8.297 L16.801,18.735 C16.801,19.362 16.381,19.780 15.750,19.780 ZM4.205,6.969 C4.206,6.955 4.207,6.940 4.208,6.926 C4.281,5.548 4.810,4.276 5.639,3.298 C5.986,2.890 6.384,2.533 6.824,2.241 L5.460,0.886 C5.250,0.677 5.250,0.367 5.460,0.157 C5.670,-0.053 5.983,-0.053 6.193,0.157 L7.603,1.554 L7.668,1.619 C8.504,1.203 9.441,0.995 10.484,0.993 C10.490,0.993 10.495,0.993 10.500,0.993 L10.500,0.993 C10.505,0.993 10.510,0.993 10.515,0.993 C11.559,0.995 12.496,1.203 13.332,1.619 L13.397,1.554 L14.807,0.157 C15.017,-0.053 15.330,-0.053 15.540,0.157 C15.750,0.367 15.750,0.677 15.540,0.886 L14.176,2.242 C14.615,2.533 15.014,2.890 15.360,3.298 C16.190,4.276 16.719,5.548 16.792,6.926 C16.792,6.940 16.794,6.955 16.794,6.969 C16.799,7.063 16.801,7.157 16.801,7.252 L4.199,7.252 C4.199,7.157 4.201,7.063 4.205,6.969 ZM13.127,5.427 C13.562,5.427 13.914,5.077 13.914,4.645 C13.914,4.212 13.562,3.862 13.127,3.862 C12.692,3.862 12.339,4.212 12.339,4.645 C12.339,5.077 12.692,5.427 13.127,5.427 ZM7.873,5.427 C8.308,5.427 8.660,5.077 8.660,4.645 C8.660,4.212 8.308,3.862 7.873,3.862 C7.438,3.862 7.086,4.212 7.086,4.645 C7.086,5.077 7.438,5.427 7.873,5.427 ZM1.574,18.736 C0.733,18.736 -0.000,18.007 -0.000,17.171 L-0.000,9.862 C-0.000,9.030 0.733,8.297 1.574,8.297 C2.415,8.297 3.148,9.030 3.148,9.862 L3.148,17.171 C3.148,18.007 2.415,18.736 1.574,18.736 Z" class="cls-1"/>
</svg>
