<svg xmlns="http://www.w3.org/2000/svg" xmlns:xlink="http://www.w3.org/1999/xlink" preserveAspectRatio="xMidYMid" width="18" height="25" viewBox="0 0 18 25">
  <path d="M16.336,10.612 C17.423,12.152 18.003,13.983 18.003,15.906 C18.003,20.918 13.970,24.994 9.006,24.994 C4.040,24.994 -0.003,20.917 -0.003,15.906 C-0.003,12.338 2.094,9.100 5.264,7.628 L5.264,5.882 L4.852,5.882 C3.627,5.882 2.614,4.858 2.614,3.621 L2.614,2.223 C2.614,0.986 3.627,0.004 4.852,0.004 L13.137,0.004 C14.362,0.004 15.344,0.986 15.344,2.223 L15.344,3.621 C15.344,4.858 14.362,5.882 13.137,5.882 L12.694,5.882 L12.694,7.619 C14.149,8.271 15.407,9.296 16.336,10.612 ZM11.494,3.730 L12.909,3.730 C13.103,3.730 13.266,3.586 13.266,3.391 L13.266,2.453 C13.266,2.258 13.103,2.104 12.909,2.104 L5.080,2.104 C4.886,2.104 4.744,2.258 4.744,2.453 L4.744,3.391 C4.744,3.586 4.886,3.730 5.080,3.730 L6.495,3.730 C6.976,3.730 7.342,4.138 7.342,4.623 L7.342,8.338 C7.342,8.783 7.077,9.181 6.662,9.333 C3.924,10.331 2.095,12.974 2.095,15.906 C2.095,19.750 5.197,22.878 9.009,22.878 C12.817,22.878 15.912,19.750 15.912,15.906 C15.912,12.894 14.111,10.315 11.323,9.337 C10.902,9.189 10.616,8.788 10.616,8.338 L10.616,4.623 C10.616,4.139 11.014,3.730 11.494,3.730 ZM11.950,13.462 C11.950,14.132 11.413,14.674 10.750,14.674 C10.087,14.674 9.550,14.132 9.550,13.462 C9.550,12.792 10.087,12.250 10.750,12.250 C11.413,12.250 11.950,12.792 11.950,13.462 ZM8.616,11.464 C8.240,11.464 7.936,11.156 7.936,10.777 C7.936,10.398 8.240,10.090 8.616,10.090 C8.991,10.090 9.296,10.398 9.296,10.777 C9.296,11.156 8.991,11.464 8.616,11.464 ZM8.536,15.628 C8.536,15.816 8.509,16.012 8.460,16.169 L14.882,16.169 C14.770,19.371 12.186,21.904 9.004,21.904 C5.824,21.904 3.239,19.371 3.128,16.169 L4.731,16.169 C4.682,16.012 4.656,15.816 4.656,15.628 C4.656,14.546 5.524,13.668 6.596,13.668 C7.667,13.668 8.536,14.546 8.536,15.628 Z" class="cls-1"/>
</svg>
