<svg xmlns="http://www.w3.org/2000/svg" xmlns:xlink="http://www.w3.org/1999/xlink" preserveAspectRatio="xMidYMid" width="21" height="25" viewBox="0 0 21 25">
  <path d="M19.182,12.945 C19.056,13.589 18.801,14.186 18.440,14.710 L19.718,15.961 L18.412,17.236 L17.136,15.985 C16.602,16.339 15.992,16.589 15.336,16.713 L15.336,18.486 L13.489,18.486 L13.489,16.713 C12.832,16.588 12.223,16.339 11.688,15.985 L10.411,17.236 L9.106,15.960 L10.383,14.709 C10.023,14.184 9.768,13.587 9.642,12.944 L7.833,12.944 L7.833,11.136 L9.643,11.136 C9.769,10.492 10.023,9.895 10.383,9.372 L9.107,8.119 L10.412,6.843 L11.686,8.094 C12.222,7.739 12.830,7.491 13.487,7.367 L13.487,5.592 L15.334,5.592 L15.334,7.367 C15.990,7.491 16.603,7.738 17.134,8.094 L18.410,6.843 L19.716,8.118 L18.438,9.371 C18.799,9.894 19.054,10.491 19.180,11.136 L20.992,11.136 L20.992,12.944 L20.992,12.945 L19.182,12.945 ZM14.412,10.067 C13.301,10.067 12.399,10.952 12.399,12.041 C12.399,13.128 13.301,14.008 14.412,14.008 C15.522,14.008 16.421,13.131 16.421,12.041 C16.421,10.951 15.523,10.067 14.412,10.067 ZM6.527,18.036 L2.963,18.036 L2.963,15.908 L6.527,15.908 L6.527,18.036 ZM2.963,4.747 L6.527,4.747 L6.527,6.877 L2.963,6.877 L2.963,4.747 ZM6.527,12.330 L2.963,12.330 L2.963,10.200 L6.527,10.200 L6.527,12.330 ZM13.483,3.071 L1.602,3.071 L1.602,19.770 L13.485,19.770 L13.485,19.741 L15.080,19.741 L15.080,22.269 C15.080,23.769 13.825,24.995 12.297,24.995 L2.790,24.995 C1.259,24.995 0.007,23.769 0.007,22.269 L0.007,2.730 C0.007,1.232 1.259,0.005 2.790,0.005 L12.297,0.005 C13.825,0.005 15.080,1.232 15.080,2.730 L15.080,4.320 L13.483,4.320 L13.483,3.071 ZM7.541,23.631 C8.247,23.631 8.818,23.072 8.818,22.383 C8.818,21.693 8.247,21.133 7.541,21.133 C6.837,21.133 6.268,21.693 6.268,22.383 C6.268,23.072 6.837,23.631 7.541,23.631 Z" class="cls-1"/>
</svg>
