<svg xmlns="http://www.w3.org/2000/svg" xmlns:xlink="http://www.w3.org/1999/xlink" preserveAspectRatio="xMidYMid" width="25" height="25" viewBox="0 0 25 25">
  <defs>
    <style>
      .cls-1 {
        fill: #08b1d8;
        fill-rule: evenodd;
      }
    </style>
  </defs>
  <path d="M12.500,-0.000 C5.625,-0.000 -0.000,5.625 -0.000,12.500 C-0.000,19.375 5.625,25.000 12.500,25.000 C19.375,25.000 25.000,19.375 25.000,12.500 C25.000,5.625 19.375,-0.000 12.500,-0.000 ZM12.500,2.500 C16.250,2.500 19.375,4.500 21.125,7.500 L12.500,7.500 C10.125,7.500 8.000,9.250 7.625,11.500 L4.625,6.375 C6.500,4.000 9.250,2.500 12.500,2.500 ZM16.250,12.500 C16.250,14.625 14.625,16.250 12.500,16.250 C10.375,16.250 8.750,14.625 8.750,12.500 C8.750,10.375 10.375,8.750 12.500,8.750 C14.625,8.750 16.250,10.375 16.250,12.500 ZM2.500,12.500 C2.500,10.625 3.000,9.000 3.875,7.500 L8.250,15.000 L8.250,15.000 C9.125,16.500 10.750,17.500 12.500,17.500 C13.125,17.500 13.625,17.375 14.125,17.250 L11.125,22.375 C6.250,21.750 2.500,17.500 2.500,12.500 ZM12.500,22.500 L16.875,15.000 L16.875,15.000 C17.250,14.250 17.625,13.375 17.625,12.500 C17.625,11.000 17.000,9.625 15.875,8.750 L21.875,8.750 C22.375,9.875 22.625,11.125 22.625,12.500 C22.500,18.000 18.000,22.500 12.500,22.500 Z" class="cls-1"/>
</svg>
