<svg xmlns="http://www.w3.org/2000/svg" xmlns:xlink="http://www.w3.org/1999/xlink" preserveAspectRatio="xMidYMid" width="24" height="25" viewBox="0 0 24 25">
  <path d="M22.018,6.836 L17.995,6.836 L17.995,1.387 C17.995,0.625 17.354,-0.000 16.574,-0.000 L1.421,-0.000 C0.640,-0.000 -0.000,0.625 -0.000,1.387 L-0.000,23.613 C-0.000,24.375 0.640,25.000 1.421,25.000 L14.972,25.000 L14.992,25.000 L14.992,25.000 L16.393,25.000 L16.574,25.000 L16.574,25.000 L22.018,25.000 C23.119,25.000 24.000,24.121 24.000,23.066 L24.000,8.809 C24.020,7.715 23.119,6.836 22.018,6.836 ZM17.614,8.008 L19.396,8.008 C19.616,8.008 19.796,8.183 19.796,8.398 C19.796,8.613 19.616,8.789 19.396,8.789 L17.614,8.789 C17.394,8.789 17.214,8.613 17.214,8.398 C17.214,8.183 17.394,8.008 17.614,8.008 ZM7.586,1.562 L10.429,1.562 C10.649,1.562 10.829,1.738 10.829,1.953 C10.829,2.168 10.649,2.344 10.429,2.344 L7.586,2.344 C7.366,2.344 7.186,2.168 7.186,1.953 C7.186,1.738 7.366,1.562 7.586,1.562 ZM6.105,1.679 C6.265,1.523 6.525,1.523 6.665,1.679 C6.745,1.758 6.786,1.855 6.786,1.953 C6.786,2.051 6.745,2.148 6.665,2.226 C6.605,2.305 6.505,2.344 6.385,2.344 C6.285,2.344 6.185,2.305 6.105,2.226 C6.025,2.148 5.985,2.051 5.985,1.953 C5.985,1.855 6.045,1.758 6.105,1.679 ZM8.927,24.238 C8.267,24.238 7.726,23.711 7.726,23.066 C7.726,22.422 8.267,21.894 8.927,21.894 C9.588,21.894 10.128,22.422 10.128,23.066 C10.128,23.711 9.588,24.238 8.927,24.238 ZM13.011,8.789 L13.011,21.094 L1.201,21.094 L1.201,3.711 L16.814,3.711 L16.814,6.836 L14.992,6.836 C13.911,6.836 13.011,7.715 13.011,8.789 ZM16.814,8.418 C16.814,8.516 16.774,8.613 16.694,8.691 C16.614,8.769 16.513,8.809 16.413,8.809 C16.313,8.809 16.213,8.769 16.133,8.691 C16.053,8.613 16.013,8.515 16.013,8.418 C16.013,8.320 16.053,8.223 16.133,8.144 C16.273,7.988 16.554,7.988 16.694,8.144 C16.774,8.223 16.814,8.320 16.814,8.418 ZM18.515,24.433 C17.895,24.433 17.394,23.945 17.394,23.340 C17.394,22.734 17.895,22.246 18.515,22.246 C19.136,22.246 19.636,22.734 19.636,23.340 C19.636,23.945 19.136,24.433 18.515,24.433 ZM23.019,21.680 L14.011,21.680 L14.011,9.961 L23.019,9.961 L23.019,21.680 Z" class="cls-1"/>
</svg>
