<svg xmlns="http://www.w3.org/2000/svg" xmlns:xlink="http://www.w3.org/1999/xlink" preserveAspectRatio="xMidYMid" width="30" height="25" viewBox="0 0 30 25">
  <path d="M29.237,4.315 L16.714,16.469 C16.619,16.561 16.501,16.627 16.371,16.659 L12.846,17.527 C12.805,17.537 12.765,17.542 12.724,17.545 L12.724,18.825 L10.603,18.825 L10.603,20.884 L8.483,20.884 L8.483,18.825 L10.603,18.825 L10.603,16.767 L11.922,16.767 C11.925,16.728 11.931,16.688 11.941,16.649 L12.836,13.227 C12.869,13.102 12.936,12.986 13.031,12.894 L25.554,0.740 C26.046,0.263 26.700,-0.000 27.396,-0.000 C28.092,-0.000 28.745,0.263 29.237,0.740 C30.253,1.726 30.253,3.329 29.237,4.315 ZM13.691,15.828 L14.736,15.571 L13.956,14.814 L13.691,15.828 ZM25.502,2.834 L14.609,13.405 L16.188,14.937 L27.080,4.366 L25.502,2.834 ZM28.185,1.762 C27.974,1.557 27.694,1.444 27.396,1.444 C27.098,1.444 26.817,1.557 26.606,1.762 L26.554,1.812 L28.132,3.345 L28.185,3.293 C28.620,2.871 28.620,2.184 28.185,1.762 ZM6.362,22.942 L6.362,20.884 L8.483,20.884 L8.483,22.942 L6.362,22.942 ZM4.241,25.000 L4.241,22.942 L6.362,22.942 L6.362,25.000 L4.241,25.000 ZM2.121,20.884 L4.241,20.884 L4.241,22.942 L2.121,22.942 L2.121,20.884 ZM-0.000,18.825 L2.121,18.825 L2.121,20.884 L-0.000,20.884 L-0.000,18.825 Z" class="cls-1"/>
</svg>
