<svg xmlns="http://www.w3.org/2000/svg" xmlns:xlink="http://www.w3.org/1999/xlink" preserveAspectRatio="xMidYMid" width="28" height="25" viewBox="0 0 28 25">
  <path d="M0.754,6.504 L5.781,6.504 C6.198,6.504 6.535,6.168 6.535,5.754 L6.535,0.750 C6.535,0.336 6.198,-0.000 5.781,-0.000 L0.754,-0.000 C0.337,-0.000 -0.000,0.336 -0.000,0.750 L-0.000,5.754 C-0.000,6.168 0.337,6.504 0.754,6.504 ZM1.508,1.501 L5.027,1.501 L5.027,5.003 L1.508,5.003 L1.508,1.501 ZM5.781,18.496 L0.754,18.496 C0.337,18.496 -0.000,18.832 -0.000,19.246 L-0.000,24.249 C-0.000,24.664 0.337,25.000 0.754,25.000 L5.781,25.000 C6.198,25.000 6.535,24.664 6.535,24.249 L6.535,19.246 C6.535,18.832 6.198,18.496 5.781,18.496 ZM5.027,23.499 L1.508,23.499 L1.508,19.996 L5.027,19.996 L5.027,23.499 ZM8.320,1.635 C8.320,1.220 8.657,0.884 9.074,0.884 L27.246,0.884 C27.662,0.884 28.000,1.220 28.000,1.635 C28.000,2.049 27.662,2.385 27.246,2.385 L9.074,2.385 C8.657,2.385 8.320,2.049 8.320,1.635 ZM8.320,4.606 C8.320,4.191 8.657,3.855 9.074,3.855 L20.384,3.855 C20.801,3.855 21.138,4.191 21.138,4.606 C21.138,5.020 20.801,5.356 20.384,5.356 L9.074,5.356 C8.657,5.356 8.320,5.020 8.320,4.606 ZM8.320,11.014 C8.320,10.600 8.657,10.264 9.074,10.264 L23.627,10.264 C24.043,10.264 24.381,10.600 24.381,11.014 C24.381,11.429 24.043,11.765 23.627,11.765 L9.074,11.765 C8.657,11.765 8.320,11.429 8.320,11.014 ZM8.320,13.985 C8.320,13.571 8.657,13.235 9.074,13.235 L20.384,13.235 C20.801,13.235 21.138,13.571 21.138,13.985 C21.138,14.400 20.801,14.736 20.384,14.736 L9.074,14.736 C8.657,14.736 8.320,14.400 8.320,13.985 ZM8.320,20.262 C8.320,19.847 8.657,19.511 9.074,19.511 L23.627,19.511 C24.043,19.511 24.381,19.847 24.381,20.262 C24.381,20.676 24.043,21.012 23.627,21.012 L9.074,21.012 C8.657,21.012 8.320,20.677 8.320,20.262 ZM28.000,23.233 C28.000,23.648 27.662,23.984 27.246,23.984 L9.074,23.984 C8.657,23.984 8.320,23.648 8.320,23.233 C8.320,22.819 8.657,22.483 9.074,22.483 L27.246,22.483 C27.662,22.483 28.000,22.819 28.000,23.233 ZM7.856,7.056 C7.505,6.833 7.039,6.936 6.815,7.286 L5.559,9.248 L0.754,9.248 C0.337,9.248 -0.000,9.584 -0.000,9.998 L-0.000,15.001 C-0.000,15.416 0.337,15.752 0.754,15.752 L5.781,15.752 C6.198,15.752 6.535,15.416 6.535,15.001 L6.535,10.516 L8.087,8.092 C8.310,7.743 8.207,7.279 7.856,7.056 ZM4.598,10.749 L3.222,12.898 L1.750,10.794 C1.738,10.777 1.723,10.764 1.711,10.749 L4.598,10.749 ZM1.508,13.075 L2.331,14.251 L1.508,14.251 L1.508,13.075 ZM5.027,14.251 L4.144,14.251 L5.027,12.872 L5.027,14.251 Z" class="cls-1"/>
</svg>
