<svg xmlns="http://www.w3.org/2000/svg" xmlns:xlink="http://www.w3.org/1999/xlink" preserveAspectRatio="xMidYMid" width="28" height="25" viewBox="0 0 28 25">
  <defs>
    <style>
      .cls-1 {
        fill: #08b1d8;
        fill-rule: evenodd;
      }
    </style>
  </defs>
  <path d="M27.662,18.451 L25.635,20.461 C25.641,20.555 25.645,20.649 25.645,20.745 C25.645,23.095 23.723,25.000 21.353,25.000 C18.983,25.000 17.062,23.095 17.062,20.745 C17.062,18.394 18.983,16.489 21.353,16.489 C22.285,16.489 23.147,16.784 23.851,17.284 L25.168,15.978 C25.386,15.762 25.675,15.643 25.983,15.643 C26.291,15.643 26.581,15.762 26.799,15.978 L27.662,16.834 C27.880,17.050 28.000,17.337 28.000,17.642 C28.000,17.948 27.880,18.235 27.662,18.451 ZM26.725,17.247 L26.354,16.878 C26.267,16.792 26.149,16.743 26.026,16.743 C25.903,16.743 25.785,16.792 25.698,16.878 L22.270,20.277 L21.053,19.074 C20.872,18.895 20.579,18.895 20.398,19.075 L20.029,19.440 C19.848,19.619 19.848,19.910 20.029,20.090 L21.942,21.989 C22.029,22.076 22.146,22.124 22.270,22.124 L22.270,22.124 C22.393,22.124 22.511,22.076 22.598,21.990 L26.725,17.897 C26.906,17.717 26.906,17.426 26.725,17.247 ZM8.406,13.660 L8.383,13.660 C8.381,13.660 8.379,13.659 8.377,13.659 C8.375,13.659 8.373,13.660 8.371,13.660 L8.342,13.660 C8.155,13.660 7.988,13.541 7.928,13.364 L7.120,10.974 L6.308,13.365 C6.248,13.541 6.082,13.660 5.894,13.660 L5.871,13.660 C5.869,13.660 5.867,13.659 5.865,13.659 C5.863,13.659 5.861,13.660 5.859,13.660 L5.831,13.660 C5.644,13.660 5.477,13.541 5.417,13.366 L4.179,9.744 C4.134,9.612 4.155,9.466 4.237,9.353 C4.319,9.239 4.452,9.172 4.592,9.172 L4.644,9.172 C4.832,9.172 4.999,9.291 5.058,9.468 L5.864,11.870 L6.667,9.469 C6.726,9.292 6.893,9.172 7.081,9.172 L7.155,9.172 C7.343,9.172 7.510,9.291 7.570,9.468 L8.376,11.870 L9.178,9.469 C9.238,9.292 9.405,9.172 9.593,9.172 L9.644,9.172 C9.785,9.172 9.917,9.239 9.999,9.353 C10.082,9.466 10.103,9.612 10.058,9.744 L8.820,13.366 C8.760,13.541 8.593,13.660 8.406,13.660 ZM14.464,13.660 L14.441,13.660 C14.439,13.660 14.437,13.659 14.435,13.659 C14.433,13.659 14.431,13.660 14.429,13.660 L14.400,13.660 C14.213,13.660 14.046,13.541 13.986,13.364 L13.178,10.974 L12.366,13.365 C12.306,13.541 12.140,13.660 11.952,13.660 L11.929,13.660 C11.927,13.660 11.925,13.659 11.923,13.659 C11.921,13.659 11.919,13.660 11.917,13.660 L11.889,13.660 C11.702,13.660 11.535,13.541 11.475,13.366 L10.237,9.744 C10.192,9.612 10.213,9.466 10.295,9.353 C10.377,9.239 10.509,9.172 10.650,9.172 L10.702,9.172 C10.890,9.172 11.057,9.291 11.116,9.468 L11.922,11.870 L12.725,9.469 C12.784,9.292 12.951,9.172 13.139,9.172 L13.213,9.172 C13.401,9.172 13.568,9.291 13.628,9.468 L14.434,11.870 L15.236,9.469 C15.296,9.292 15.463,9.172 15.651,9.172 L15.702,9.172 C15.843,9.172 15.975,9.239 16.057,9.353 C16.139,9.466 16.161,9.612 16.116,9.744 L14.878,13.366 C14.817,13.541 14.651,13.660 14.464,13.660 ZM16.353,9.353 C16.435,9.239 16.567,9.172 16.708,9.172 L16.760,9.172 C16.948,9.172 17.115,9.291 17.174,9.468 L17.980,11.870 L18.783,9.469 C18.842,9.292 19.009,9.172 19.197,9.172 L19.271,9.172 C19.459,9.172 19.626,9.291 19.686,9.468 L20.492,11.870 L21.294,9.469 C21.354,9.292 21.521,9.172 21.709,9.172 L21.760,9.172 C21.901,9.172 22.033,9.239 22.115,9.353 C22.197,9.466 22.219,9.612 22.174,9.744 L20.935,13.366 C20.875,13.541 20.709,13.660 20.522,13.660 L20.499,13.660 C20.497,13.660 20.495,13.659 20.493,13.659 C20.491,13.659 20.489,13.660 20.487,13.660 L20.458,13.660 C20.271,13.660 20.104,13.541 20.044,13.364 L19.236,10.974 L18.424,13.365 C18.364,13.541 18.198,13.660 18.010,13.660 L17.987,13.660 C17.985,13.660 17.983,13.659 17.981,13.659 C17.979,13.659 17.977,13.660 17.975,13.660 L17.947,13.660 C17.759,13.660 17.593,13.541 17.533,13.366 L16.295,9.744 C16.249,9.612 16.271,9.466 16.353,9.353 ZM24.452,14.907 L24.452,5.615 L1.900,5.615 L1.900,21.854 L15.923,21.854 C16.062,22.535 16.327,23.171 16.692,23.738 L1.584,23.738 C0.710,23.738 -0.000,23.034 -0.000,22.168 L-0.000,1.570 C-0.000,0.704 0.710,-0.000 1.584,-0.000 L24.769,-0.000 C25.642,-0.000 26.353,0.704 26.353,1.570 L26.353,14.326 C26.262,14.316 26.170,14.310 26.077,14.310 C25.474,14.310 24.905,14.521 24.452,14.907 ZM19.029,2.637 C19.029,2.316 18.767,2.057 18.445,2.057 L17.860,2.057 C17.537,2.057 17.275,2.316 17.275,2.637 L17.275,3.294 C17.275,3.614 17.537,3.873 17.860,3.873 L18.445,3.873 C18.767,3.873 19.029,3.614 19.029,3.294 L19.029,2.637 ZM21.748,2.637 C21.748,2.316 21.487,2.057 21.164,2.057 L20.579,2.057 C20.256,2.057 19.994,2.316 19.994,2.637 L19.994,3.294 C19.994,3.614 20.256,3.873 20.579,3.873 L21.164,3.873 C21.487,3.873 21.748,3.614 21.748,3.294 L21.748,2.637 ZM24.467,2.637 C24.467,2.316 24.206,2.057 23.883,2.057 L23.298,2.057 C22.975,2.057 22.713,2.316 22.713,2.637 L22.713,3.294 C22.713,3.614 22.975,3.873 23.298,3.873 L23.883,3.873 C24.206,3.873 24.467,3.614 24.467,3.294 L24.467,2.637 Z" class="cls-1"/>
</svg>
