<svg xmlns="http://www.w3.org/2000/svg" xmlns:xlink="http://www.w3.org/1999/xlink" preserveAspectRatio="xMidYMid" width="25" height="25" viewBox="0 0 25 25">
  <path d="M16.407,10.206 L18.041,8.573 L19.828,6.787 L21.313,5.303 L22.358,5.492 L25.000,2.851 L22.583,2.416 L22.148,-0.000 L19.510,2.641 L19.700,3.685 L18.215,5.169 C13.831,1.602 7.348,1.858 3.262,5.937 C-1.096,10.293 -1.096,17.377 3.262,21.733 C7.620,26.089 14.707,26.089 19.065,21.733 C22.711,18.088 23.305,12.535 20.847,8.271 L18.993,10.124 C20.514,13.339 19.951,17.305 17.293,19.962 C13.913,23.340 8.418,23.340 5.039,19.962 C1.659,16.584 1.659,11.092 5.039,7.713 C8.142,4.612 13.032,4.361 16.428,6.961 L14.794,8.594 C12.300,6.869 8.859,7.114 6.647,9.326 C4.158,11.813 4.158,15.857 6.647,18.344 C9.135,20.832 13.181,20.832 15.670,18.344 C17.416,16.599 17.933,14.086 17.226,11.880 L15.014,14.091 C14.953,14.997 14.584,15.882 13.893,16.573 C12.382,18.083 9.924,18.083 8.413,16.573 C6.903,15.063 6.903,12.607 8.413,11.097 C9.642,9.868 11.496,9.638 12.961,10.411 L11.204,12.166 C10.759,12.151 10.308,12.315 9.970,12.653 C9.320,13.303 9.320,14.362 9.970,15.017 C10.620,15.673 11.680,15.667 12.336,15.017 C12.674,14.679 12.838,14.229 12.822,13.784 L14.579,12.028 L16.407,10.206 Z" class="cls-1"/>
</svg>
