<svg xmlns="http://www.w3.org/2000/svg" xmlns:xlink="http://www.w3.org/1999/xlink" preserveAspectRatio="xMidYMid" width="21" height="25" viewBox="0 0 21 25">
  <path d="M20.998,24.192 C20.999,24.634 20.673,24.993 20.270,24.992 L18.264,24.988 C17.862,24.987 17.533,24.626 17.533,24.185 L17.509,10.684 L17.498,4.396 C17.497,4.316 17.497,4.102 18.790,0.253 C18.842,0.099 18.974,-0.004 19.125,-0.008 C19.273,-0.011 19.410,0.086 19.468,0.238 C20.963,4.100 20.964,4.312 20.965,4.403 L20.976,11.192 L20.976,11.192 L20.998,24.192 ZM19.158,1.486 C18.826,2.487 18.515,3.447 18.349,3.996 L20.091,4.000 C19.898,3.446 19.538,2.485 19.158,1.486 ZM20.264,21.716 L18.259,21.713 L18.263,24.187 L20.269,24.191 L20.264,21.716 ZM13.417,14.224 C12.576,14.981 12.232,15.688 12.227,16.649 C12.222,16.655 12.222,16.655 12.227,16.670 L12.217,17.673 C12.212,18.179 11.807,18.584 11.305,18.584 C11.300,18.584 11.300,18.584 11.295,18.584 C10.794,18.578 10.389,18.159 10.394,17.652 L10.404,16.649 C10.409,15.166 10.981,13.958 12.202,12.858 C12.389,12.684 12.571,12.505 12.738,12.311 C14.809,9.942 14.814,6.365 12.743,3.991 C11.554,2.625 9.847,1.842 8.055,1.842 C6.268,1.842 4.557,2.625 3.367,3.991 C1.291,6.370 1.296,9.952 3.382,12.326 C3.549,12.510 3.727,12.694 3.909,12.858 C5.149,13.979 5.726,15.196 5.721,16.701 L5.721,16.706 L5.711,17.663 C5.706,18.169 5.301,18.573 4.800,18.573 C4.795,18.573 4.795,18.573 4.790,18.573 C4.288,18.568 3.883,18.149 3.888,17.642 L3.899,16.685 C3.899,15.723 3.539,14.992 2.694,14.229 C2.456,14.014 2.228,13.784 2.015,13.544 C0.719,12.070 0.005,10.156 0.000,8.161 C-0.005,6.165 0.704,4.247 1.995,2.773 C3.529,1.008 5.736,-0.000 8.050,-0.000 C10.364,-0.000 12.571,1.008 14.105,2.768 C15.391,4.242 16.100,6.155 16.100,8.146 C16.100,10.141 15.391,12.050 14.105,13.523 C13.887,13.769 13.660,14.004 13.417,14.224 ZM7.139,17.652 C7.139,17.652 7.139,13.185 7.139,11.835 L4.886,9.563 C4.531,9.200 4.531,8.616 4.886,8.258 C5.245,7.900 5.822,7.900 6.177,8.258 L8.693,10.801 C8.845,10.955 8.961,11.185 8.961,11.523 L8.961,17.652 C8.961,18.159 8.551,18.573 8.050,18.573 C7.549,18.573 7.139,18.159 7.139,17.652 ZM9.442,8.739 L9.923,8.253 C10.283,7.895 10.860,7.895 11.214,8.253 C11.569,8.616 11.569,9.200 11.214,9.558 L10.733,10.044 C10.551,10.228 10.318,10.315 10.085,10.315 C9.852,10.315 9.620,10.223 9.442,10.044 C9.088,9.681 9.088,9.097 9.442,8.739 ZM4.800,20.113 L11.300,20.113 C11.802,20.113 12.212,20.528 12.212,21.034 C12.212,21.546 11.807,21.955 11.305,21.955 L4.800,21.955 C4.299,21.955 3.888,21.541 3.888,21.034 C3.888,20.528 4.299,20.113 4.800,20.113 ZM6.293,23.158 L9.802,23.158 C10.303,23.158 10.713,23.572 10.713,24.079 C10.713,24.585 10.303,25.000 9.802,25.000 L6.293,25.000 C5.792,25.000 5.382,24.585 5.382,24.079 C5.382,23.572 5.792,23.158 6.293,23.158 Z" class="cls-1"/>
</svg>
